<svg id="구성_요소_9_1" data-name="구성 요소 9 – 1" xmlns="http://www.w3.org/2000/svg" xmlns:xlink="http://www.w3.org/1999/xlink" width="32" height="31.27" viewBox="0 0 32 31.27">
  <defs>
    <clipPath id="clip-path">
      <rect id="사각형_43" data-name="사각형 43" width="32" height="31.27" fill="none"/>
    </clipPath>
  </defs>
  <g id="그룹_58" data-name="그룹 58" clip-path="url(#clip-path)">
    <path id="패스_188" data-name="패스 188" d="M39.571,48.831a34.081,34.081,0,0,0-1.876-5.8,17.162,17.162,0,0,0-3.676-6.092,13,13,0,0,0-5.656-3.2,11.88,11.88,0,0,0-3.3-.408,11.88,11.88,0,0,0-3.3.408,13,13,0,0,0-5.656,3.2,17.162,17.162,0,0,0-3.676,6.092,34.09,34.09,0,0,0-1.876,5.8c-.121.563-.239,1.1-.354,1.612A8.307,8.307,0,0,0,18.3,60.569H31.818a8.307,8.307,0,0,0,8.107-10.126c-.115-.514-.233-1.049-.354-1.612" transform="translate(-9.062 -30.231)" fill="#3f5fec"/>
    <path id="패스_189" data-name="패스 189" d="M22.758,52.433H9.244A9.239,9.239,0,0,1,.228,41.17c.121-.541.237-1.066.353-1.6a35.144,35.144,0,0,1,1.925-5.958,18.026,18.026,0,0,1,3.886-6.4,13.8,13.8,0,0,1,6.048-3.424A12.737,12.737,0,0,1,16,23.337a12.737,12.737,0,0,1,3.561.444,13.8,13.8,0,0,1,6.048,3.424A18.036,18.036,0,0,1,29.5,33.615a35.089,35.089,0,0,1,1.921,5.945v.007c.116.541.235,1.081.353,1.6a9.239,9.239,0,0,1-9.016,11.262M16,25.2a10.917,10.917,0,0,0-3.043.371A11.957,11.957,0,0,0,7.7,28.529l-.02.02a16.38,16.38,0,0,0-3.453,5.764A32.937,32.937,0,0,0,2.4,39.965c-.116.537-.232,1.067-.355,1.613a7.376,7.376,0,0,0,7.2,8.99H22.758a7.376,7.376,0,0,0,7.2-8.99c-.119-.527-.238-1.071-.356-1.616a32.9,32.9,0,0,0-1.827-5.643,16.393,16.393,0,0,0-3.456-5.771l-.02-.02a11.958,11.958,0,0,0-5.254-2.957A10.921,10.921,0,0,0,16,25.2" transform="translate(-0.001 -21.163)" fill="#fff"/>
    <path id="패스_190" data-name="패스 190" d="M142.544,125.435a1.316,1.316,0,0,1-.351.936c-.136.133-.3.081-.483.081s-.359.047-.5-.095a1.325,1.325,0,0,1-.337-.921c0-.634.374-1.147.835-1.147s.835.514.835,1.147" transform="translate(-127.749 -112.707)" fill="#fff"/>
    <path id="패스_191" data-name="패스 191" d="M186.309,125.435a1.316,1.316,0,0,1-.351.936c-.136.133-.3.081-.483.081s-.359.047-.5-.095a1.325,1.325,0,0,1-.337-.921c0-.634.374-1.147.835-1.147s.835.514.835,1.147" transform="translate(-167.436 -112.707)" fill="#fff"/>
    <path id="패스_192" data-name="패스 192" d="M122.03,170.363h-4.358a3.287,3.287,0,0,1-2.527-1.058,2.691,2.691,0,0,1-.586-2.2l.951-6.471a3.135,3.135,0,0,1,3.113-2.669h2.455a3.134,3.134,0,0,1,3.113,2.665l.952,6.479a2.689,2.689,0,0,1-.586,2.2,3.287,3.287,0,0,1-2.527,1.058m-3.406-11.471a2.207,2.207,0,0,0-2.192,1.877l-.951,6.471a1.755,1.755,0,0,0,.372,1.459,2.364,2.364,0,0,0,1.819.732h4.358a2.364,2.364,0,0,0,1.819-.732,1.752,1.752,0,0,0,.373-1.455l-.952-6.479a2.206,2.206,0,0,0-2.191-1.873Z" transform="translate(-103.851 -143.242)" fill="#fff"/>
    <path id="패스_193" data-name="패스 193" d="M154.622,187.036h0a1.6,1.6,0,0,1-1.445-1.022l-.269-.592a.466.466,0,1,1,.848-.385l.269.592a.612.612,0,0,0,1.194,0l.269-.592a.466.466,0,1,1,.848.385l-.269.592a1.6,1.6,0,0,1-1.445,1.022" transform="translate(-138.622 -167.547)" fill="#fff"/>
    <path id="패스_194" data-name="패스 194" d="M167.18,204.281a.466.466,0,0,1-.466-.466v-4.189a.466.466,0,0,1,.932,0v4.189a.466.466,0,0,1-.466.466" transform="translate(-151.18 -180.603)" fill="#fff"/>
    <path id="패스_195" data-name="패스 195" d="M146.062,245.762a.466.466,0,0,1-.209-.883c1.933-.968,2.421-.968,4.353,0a.466.466,0,1,1-.418.833c-1.676-.84-1.841-.84-3.518,0a.464.464,0,0,1-.208.049" transform="translate(-132.03 -221.404)" fill="#fff"/>
    <path id="패스_196" data-name="패스 196" d="M240.953,17.114a8.824,8.824,0,0,0,.956-3.433,4.422,4.422,0,0,0-.734-1.943c-.457-.874-.807-1.544-1.534-1.71-1.134-.259-1.6,1.733-1.791,3.992a7.31,7.31,0,0,0,.056,2.212" transform="translate(-215.64 -9.074)" fill="#3f5fec"/>
    <path id="패스_197" data-name="패스 197" d="M231.881,8.973a.932.932,0,0,1-.85-1.313,7.036,7.036,0,0,0,.877-2.976,2.718,2.718,0,0,0-.443-1.241c-.062-.111-.125-.225-.188-.345-.361-.69-.588-1.1-.853-1.213-.131.157-.518.808-.717,3.143a6.563,6.563,0,0,0,.033,1.916.932.932,0,0,1-1.812.435,7.982,7.982,0,0,1-.078-2.509c.215-2.526.684-3.925,1.519-4.535a1.686,1.686,0,0,1,1.407-.287c1.145.262,1.657,1.24,2.151,2.185.056.107.112.207.166.305a4.51,4.51,0,0,1,.672,2,9.169,9.169,0,0,1-1.034,3.889.932.932,0,0,1-.851.551" transform="translate(-206.569 0)" fill="#fff"/>
    <path id="패스_198" data-name="패스 198" d="M60.319,17.114a8.824,8.824,0,0,1-.956-3.433,4.422,4.422,0,0,1,.734-1.943c.457-.874.807-1.544,1.534-1.71,1.134-.259,1.6,1.733,1.791,3.992a7.309,7.309,0,0,1-.056,2.212" transform="translate(-53.826 -9.074)" fill="#3f5fec"/>
    <path id="패스_199" data-name="패스 199" d="M51.254,8.973a.932.932,0,0,1-.851-.551,9.169,9.169,0,0,1-1.034-3.889,4.511,4.511,0,0,1,.672-2c.054-.1.11-.2.165-.3C50.7,1.286,51.212.308,52.358.047a1.686,1.686,0,0,1,1.407.287c.835.61,1.3,2.008,1.519,4.535a7.985,7.985,0,0,1-.078,2.509.932.932,0,0,1-1.812-.435,6.569,6.569,0,0,0,.033-1.916c-.2-2.334-.585-2.985-.717-3.143-.266.11-.493.524-.853,1.212-.063.121-.126.235-.188.346a2.716,2.716,0,0,0-.443,1.241A7.036,7.036,0,0,0,52.1,7.659a.932.932,0,0,1-.85,1.313" transform="translate(-44.76 0)" fill="#fff"/>
  </g>
</svg>
