<svg id="bell" xmlns="http://www.w3.org/2000/svg" width="26" height="29.716" viewBox="0 0 26 29.716">
  <path id="bell-2" data-name="bell" d="M14,29.715A3.714,3.714,0,0,0,17.714,26H10.286A3.714,3.714,0,0,0,14,29.715M14,3.563l-1.48.3a7.429,7.429,0,0,0-5.948,7.282,40.3,40.3,0,0,1-.852,6.949,24.024,24.024,0,0,1-1.231,4.193H23.512a24.138,24.138,0,0,1-1.231-4.193,40.3,40.3,0,0,1-.852-6.949,7.429,7.429,0,0,0-5.949-7.28ZM25.551,22.286A4.725,4.725,0,0,0,27,24.144H1a4.725,4.725,0,0,0,1.449-1.857c1.671-3.343,2.266-9.509,2.266-11.143a9.289,9.289,0,0,1,7.438-9.1,1.857,1.857,0,1,1,3.7,0,9.286,9.286,0,0,1,7.438,9.1c0,1.634.594,7.8,2.266,11.143" transform="translate(-1 0.001)" fill="#646d8f"/>
</svg>
