<svg id="camera" xmlns="http://www.w3.org/2000/svg" width="50" height="37.5" viewBox="0 0 50 37.5">
  <g id="camera-2" data-name="camera" transform="translate(0 -2)" opacity="0.5">
    <path id="패스_224" data-name="패스 224" d="M46.875,33.25a3.125,3.125,0,0,1-3.125,3.125H6.25A3.125,3.125,0,0,1,3.125,33.25V14.5A3.125,3.125,0,0,1,6.25,11.375H9.913a9.375,9.375,0,0,0,6.625-2.747l2.594-2.588a3.125,3.125,0,0,1,2.2-.916h7.325a3.125,3.125,0,0,1,2.209.915l2.588,2.588a9.375,9.375,0,0,0,6.631,2.747H43.75A3.125,3.125,0,0,1,46.875,14.5ZM6.25,8.25A6.25,6.25,0,0,0,0,14.5V33.25A6.25,6.25,0,0,0,6.25,39.5h37.5A6.25,6.25,0,0,0,50,33.25V14.5a6.25,6.25,0,0,0-6.25-6.25H40.088A6.249,6.249,0,0,1,35.67,6.42L33.081,3.831A6.25,6.25,0,0,0,28.663,2H21.337A6.249,6.249,0,0,0,16.92,3.83L14.331,6.419A6.25,6.25,0,0,1,9.913,8.25Z" transform="translate(0 0)" fill="#3eb2ea"/>
    <path id="패스_225" data-name="패스 225" d="M20.627,23.627a7.761,7.761,0,1,1,7.761-7.761,7.761,7.761,0,0,1-7.761,7.761m0,3.1A10.866,10.866,0,1,0,9.761,15.866,10.866,10.866,0,0,0,20.627,26.732M5.1,9.657A1.552,1.552,0,1,1,3.552,8.1,1.552,1.552,0,0,1,5.1,9.657" transform="translate(4.209 6.461)" fill="#3eb2ea"/>
  </g>
</svg>
