<svg xmlns="http://www.w3.org/2000/svg" width="30.002" height="25.736" viewBox="0 0 30.002 25.736">
  <g id="camera_blue" transform="translate(0 0.8)">
    <g id="그룹_88" data-name="그룹 88" transform="translate(0 2.435)">
      <path id="패스_224" data-name="패스 224" d="M28.127,20.751a1.875,1.875,0,0,1-1.875,1.875H3.75a1.875,1.875,0,0,1-1.875-1.875V9.5A1.875,1.875,0,0,1,3.75,7.625h2.2A5.625,5.625,0,0,0,9.923,5.977L11.48,4.425A1.875,1.875,0,0,1,12.8,3.875h4.4a1.875,1.875,0,0,1,1.325.549l1.553,1.553a5.625,5.625,0,0,0,3.979,1.648h2.2A1.875,1.875,0,0,1,28.127,9.5ZM3.75,5.75A3.75,3.75,0,0,0,0,9.5V20.751A3.75,3.75,0,0,0,3.75,24.5h22.5A3.75,3.75,0,0,0,30,20.751V9.5a3.75,3.75,0,0,0-3.75-3.75h-2.2a3.75,3.75,0,0,1-2.651-1.1L19.85,3.1A3.75,3.75,0,0,0,17.2,2H12.8a3.75,3.75,0,0,0-2.651,1.1L8.6,4.651a3.75,3.75,0,0,1-2.651,1.1Z" transform="translate(0 -2)" fill="#3f5fec"/>
      <path id="패스_225" data-name="패스 225" d="M13.177,16.177a4.657,4.657,0,1,1,4.657-4.657,4.657,4.657,0,0,1-4.657,4.657m0,1.863a6.52,6.52,0,0,0,6.52-6.52,6.745,6.745,0,0,0-1.054-3.556A6.388,6.388,0,0,0,13.177,5a6.52,6.52,0,0,0,0,13.04M3.863,7.794a.931.931,0,1,1-.931-.931.931.931,0,0,1,.931.931" transform="translate(1.726 0.677)" fill="#3f5fec"/>
      <path id="패스_230" data-name="패스 230" d="M1857.185,298.813l-4.411,3.727h-4.286l-1.8,2.112v12.921l2.547,1.864,22.612-.311,3.044-2.361-.932-13.294-2.112-.932-3.665-.373-4.535-3.354Z" transform="translate(-1845.488 -297.729)" fill="#3f5fec"/>
      <circle id="타원_4" data-name="타원 4" cx="5" cy="5" r="5" transform="translate(9.602 7.565)" fill="#fff"/>
      <circle id="타원_5" data-name="타원 5" cx="1" cy="1" r="1" transform="translate(3.602 7.565)" fill="#fff"/>
    </g>
    <g id="패스_231" data-name="패스 231" transform="translate(-1817.938 -226)" fill="#3f5fec">
      <path d="M 1827.588134765625 236.3371734619141 L 1827.188110351562 236.3371734619141 L 1824.653198242188 236.3371734619141 L 1824.253173828125 236.3371734619141 L 1824.253173828125 235.9371795654297 L 1824.253173828125 232.6360931396484 L 1820.800048828125 232.6360931396484 L 1820.400024414062 232.6360931396484 L 1820.400024414062 232.236083984375 L 1820.400024414062 229.7010955810547 L 1820.400024414062 229.3011016845703 L 1820.800048828125 229.3011016845703 L 1824.253173828125 229.3011016845703 L 1824.253173828125 226 L 1824.253173828125 225.5999908447266 L 1824.653198242188 225.5999908447266 L 1827.188110351562 225.5999908447266 L 1827.588134765625 225.5999908447266 L 1827.588134765625 226 L 1827.588134765625 228.3294677734375 L 1827.588134765625 229.3011016845703 L 1831.041259765625 229.3011016845703 L 1831.441284179688 229.3011016845703 L 1831.441284179688 229.7010955810547 L 1831.441284179688 232.236083984375 L 1831.441284179688 232.6360931396484 L 1831.041259765625 232.6360931396484 L 1827.588134765625 232.6360931396484 L 1827.588134765625 235.9371795654297 L 1827.588134765625 236.3371734619141 Z" stroke="none"/>
      <path d="M 1824.653198242188 226 L 1824.653198242188 229.7010955810547 L 1820.800048828125 229.7010955810547 L 1820.800048828125 232.236083984375 L 1824.653198242188 232.236083984375 L 1824.653198242188 235.9371795654297 L 1827.188110351562 235.9371795654297 L 1827.188110351562 232.236083984375 L 1831.041259765625 232.236083984375 L 1831.041259765625 229.7010955810547 L 1827.188110351562 229.7010955810547 L 1827.188110351562 226 L 1824.653198242188 226 M 1823.853149414062 225.1999969482422 L 1827.988159179688 225.1999969482422 L 1827.988159179688 228.9010925292969 L 1831.84130859375 228.9010925292969 L 1831.84130859375 233.0360870361328 L 1827.988159179688 233.0360870361328 L 1827.988159179688 236.7371826171875 L 1823.853149414062 236.7371826171875 L 1823.853149414062 233.0360870361328 L 1820 233.0360870361328 L 1820 228.9010925292969 L 1823.853149414062 228.9010925292969 L 1823.853149414062 225.1999969482422 Z" stroke="none" fill="#fff"/>
    </g>
  </g>
</svg>
