<svg xmlns="http://www.w3.org/2000/svg" xmlns:xlink="http://www.w3.org/1999/xlink" width="122" height="122" viewBox="0 0 122 122">
  <defs>
    <filter id="타원_1" x="0" y="0" width="122" height="122" filterUnits="userSpaceOnUse">
      <feOffset input="SourceAlpha"/>
      <feGaussianBlur stdDeviation="7" result="blur"/>
      <feFlood flood-color="#222c59" flood-opacity="0.149"/>
      <feComposite operator="in" in2="blur"/>
      <feComposite in="SourceGraphic"/>
    </filter>
    <filter id="타원_3" x="78" y="15" width="32" height="32" filterUnits="userSpaceOnUse">
      <feOffset input="SourceAlpha"/>
      <feGaussianBlur stdDeviation="2" result="blur-2"/>
      <feFlood flood-color="#222c59" flood-opacity="0.102"/>
      <feComposite operator="in" in2="blur-2"/>
      <feComposite in="SourceGraphic"/>
    </filter>
  </defs>
  <g id="chat_button" transform="translate(21 21)">
    <g id="그룹_85" data-name="그룹 85" transform="translate(-334 -736)">
      <g transform="matrix(1, 0, 0, 1, 313, 715)" filter="url(#타원_1)">
        <circle id="타원_1-2" data-name="타원 1" cx="40" cy="40" r="40" transform="translate(21 21)" fill="#fff"/>
      </g>
      <g id="chat" transform="translate(357 759.135)">
        <path id="패스_228" data-name="패스 228" d="M7.25,9.125A2.125,2.125,0,1,1,5.125,7,2.125,2.125,0,0,1,7.25,9.125m8.5,0A2.125,2.125,0,1,1,13.625,7,2.125,2.125,0,0,1,15.75,9.125m6.375,2.125A2.125,2.125,0,1,0,20,9.125a2.125,2.125,0,0,0,2.125,2.125" transform="translate(3.375 6.75)" fill="#3f5fec"/>
        <path id="패스_229" data-name="패스 229" d="M4.6,32.456l.043-.008A29.014,29.014,0,0,0,12.013,30.1,19.125,19.125,0,0,0,17,30.75c9.388,0,17-6.66,17-14.875S26.388,1,17,1,0,7.66,0,15.875A13.8,13.8,0,0,0,4.186,25.65a22.1,22.1,0,0,1-1.114,4.926l-.006.023q-.238.685-.519,1.354a.553.553,0,0,0,.58.769q.738-.121,1.473-.266m1.7-6.6a2.125,2.125,0,0,0-.61-1.7,11.688,11.688,0,0,1-3.566-8.275C2.125,9.092,8.508,3.125,17,3.125s14.875,5.967,14.875,12.75S25.492,28.625,17,28.625a17,17,0,0,1-4.437-.578,2.125,2.125,0,0,0-1.511.157,25.138,25.138,0,0,1-5.6,1.9,23.375,23.375,0,0,0,.846-4.25" fill="#3f5fec"/>
      </g>
    </g>
    <g id="그룹_84" data-name="그룹 84" transform="translate(-334 -736)">
      <g transform="matrix(1, 0, 0, 1, 313, 715)" filter="url(#타원_3)">
        <circle id="타원_3-2" data-name="타원 3" cx="10" cy="10" r="10" transform="translate(84 21)" fill="#fff"/>
      </g>
      <g id="그룹_83" data-name="그룹 83" transform="translate(-550.5 848.5)">
        <line id="선_5" data-name="선 5" x2="8" y2="8" transform="translate(953.5 -106.5)" fill="none" stroke="#b5bcd2" stroke-linecap="round" stroke-width="1.5"/>
        <line id="선_6" data-name="선 6" x1="8" y2="8" transform="translate(953.5 -106.5)" fill="none" stroke="#b5bcd2" stroke-linecap="round" stroke-width="1.5"/>
      </g>
    </g>
  </g>
</svg>
