<svg id="nav_logo" xmlns="http://www.w3.org/2000/svg" xmlns:xlink="http://www.w3.org/1999/xlink" width="95" height="24.323" viewBox="0 0 95 24.323">
  <defs>
    <clipPath id="clip-path">
      <rect id="사각형_44" data-name="사각형 44" width="95" height="24.323" fill="none"/>
    </clipPath>
  </defs>
  <g id="그룹_59" data-name="그룹 59" clip-path="url(#clip-path)">
    <path id="패스_200" data-name="패스 200" d="M21.884,34.45a6.512,6.512,0,0,1-2.777,2.2,11.035,11.035,0,0,1-3.57,1.043l.15-3.613a5.432,5.432,0,0,0,2.679-1.474,4.85,4.85,0,0,0,1.25-2.835q-1.243.088-2.486.18a1.115,1.115,0,0,1-.906-.217,1.208,1.208,0,0,1-.23-.9l.091-2.181q1.875-.143,3.75-.275l.071-1.85q2.307-.161,4.615-.306l-.063,1.85q1.787-.111,3.574-.213l-.067,2.179a1.461,1.461,0,0,1-.286.939,1.284,1.284,0,0,1-.917.339q-1.177.069-2.353.142a4.37,4.37,0,0,0,.962,2.687,3.914,3.914,0,0,0,2.544,1.126l-.11,3.61a9.876,9.876,0,0,1-3.449-.576,4.444,4.444,0,0,1-2.475-1.851m11.648,7.8a2.959,2.959,0,0,1-1.138,2.329,4.8,4.8,0,0,1-2.717.94q-4.846.259-9.687.589a4.136,4.136,0,0,1-2.65-.614,2.415,2.415,0,0,1-1-2.2l.083-2.049A3.035,3.035,0,0,1,17.6,38.911,4.931,4.931,0,0,1,20.3,37.94q4.806-.327,9.617-.584A4.216,4.216,0,0,1,32.567,38a2.479,2.479,0,0,1,1.017,2.2l-.052,2.047m-4.6-.846a.65.65,0,0,0-.188-.517,1.368,1.368,0,0,0-.923-.147q-2.831.161-5.66.344a1.554,1.554,0,0,0-.924.259.759.759,0,0,0-.234.543l0,.066a.585.585,0,0,0,.2.5,1.436,1.436,0,0,0,.911.126q2.833-.183,5.668-.344A1.609,1.609,0,0,0,28.714,42a.724.724,0,0,0,.219-.528c0-.026,0-.04,0-.066m4.553-6.319a1.471,1.471,0,0,1-.5,1.112,2.007,2.007,0,0,1-1.275.469q-1.422.071-2.844.148.062-2.08.123-4.161l-1.394.078a1.187,1.187,0,0,1-.911-.288,1.074,1.074,0,0,1-.331-.871c.024-.74.036-1.11.059-1.849q1.334-.079,2.668-.151l.127-4.271q2.267-.122,4.534-.23-.128,5.007-.256,10.014" transform="translate(-14.379 -22.412)" fill="#3f5fec"/>
    <path id="패스_201" data-name="패스 201" d="M18.244,17.961c-.025.74-.038,1.11-.063,1.85q1.787-.111,3.574-.213-.034,1.09-.067,2.179a1.461,1.461,0,0,1-.286.939,1.284,1.284,0,0,1-.917.339q-1.177.068-2.353.142a4.407,4.407,0,0,0,.962,2.687,3.95,3.95,0,0,0,2.544,1.126l-.111,3.61a10.04,10.04,0,0,1-3.448-.576,4.469,4.469,0,0,1-2.475-1.851,6.462,6.462,0,0,1-2.777,2.2,10.9,10.9,0,0,1-3.57,1.043l.15-3.613a5.728,5.728,0,0,0,2.68-1.474,5.008,5.008,0,0,0,1.25-2.835q-1.243.088-2.486.18a1.115,1.115,0,0,1-.906-.217,1.207,1.207,0,0,1-.23-.9l.091-2.181q1.875-.143,3.75-.275l.071-1.85q2.307-.161,4.615-.306m9.222.858q-.128,5.007-.256,10.014a1.471,1.471,0,0,1-.5,1.112,2.007,2.007,0,0,1-1.275.469q-1.422.071-2.844.148.062-2.08.123-4.161l-1.394.078a1.186,1.186,0,0,1-.911-.288,1.073,1.073,0,0,1-.331-.871c.024-.74.036-1.11.059-1.849q1.334-.079,2.668-.151.063-2.135.127-4.271,2.267-.122,4.534-.23M23.634,31.1a4.214,4.214,0,0,1,2.656.646,2.478,2.478,0,0,1,1.017,2.2c-.021.819-.031,1.228-.052,2.047a2.949,2.949,0,0,1-1.138,2.329,4.775,4.775,0,0,1-2.717.94q-4.846.259-9.688.589a4.127,4.127,0,0,1-2.65-.614,2.411,2.411,0,0,1-1-2.2l.083-2.049a3.02,3.02,0,0,1,1.176-2.338,4.9,4.9,0,0,1,2.693-.971q4.806-.327,9.617-.584m-7.8,5.23q2.833-.183,5.668-.344a1.609,1.609,0,0,0,.935-.239.724.724,0,0,0,.219-.528c0-.026,0-.04,0-.066a.65.65,0,0,0-.188-.517,1.368,1.368,0,0,0-.923-.147q-2.831.161-5.66.344a1.552,1.552,0,0,0-.924.259.758.758,0,0,0-.234.543l0,.066a.584.584,0,0,0,.2.5,1.434,1.434,0,0,0,.911.126M18.74,17.457l-.48.03q-2.307.146-4.613.306l-.48.034c-.007.19-.011.284-.018.474-.021.55-.032.826-.053,1.376q-1.634.117-3.268.241l-.48.037-.02.474q-.046,1.091-.092,2.181a1.579,1.579,0,0,0,.344,1.217,1.521,1.521,0,0,0,1.254.342c.769-.057,1.154-.085,1.923-.14a4.272,4.272,0,0,1-.983,2,4.766,4.766,0,0,1-2.4,1.331l-.432.08-.018.425-.152,3.613c-.008.192-.012.288-.02.481l.492-.044A12.7,12.7,0,0,0,13,30.819a8.481,8.481,0,0,0,2.562-1.813,5.335,5.335,0,0,0,2.317,1.487,11.039,11.039,0,0,0,1.319.385q-2.581.157-5.16.333A5.907,5.907,0,0,0,11.05,32.3,3.586,3.586,0,0,0,9.662,35.03c-.034.82-.051,1.229-.084,2.049a2.818,2.818,0,0,0,1.174,2.562,4.932,4.932,0,0,0,2.943.689q4.844-.329,9.692-.589a5.761,5.761,0,0,0,3.019-1.052,3.481,3.481,0,0,0,1.338-2.713c.02-.819.031-1.228.051-2.047a2.91,2.91,0,0,0-1.2-2.576,3.89,3.89,0,0,0-.958-.482,2.453,2.453,0,0,0,1.388-.585,1.961,1.961,0,0,0,.675-1.475q.126-5.007.251-10.014l.012-.474-.481.022q-2.267.108-4.532.23l-.481.026c-.006.19-.009.284-.014.474q-.057,1.9-.114,3.8l-.495.028a2.027,2.027,0,0,0,.328-1.15l.066-2.179.014-.474-.481.027q-1.546.087-3.092.183l.046-1.376.016-.474m-.067,6.18.979-.059-.058,1.772a1.941,1.941,0,0,0,.016.326q-.082-.07-.162-.147a3.218,3.218,0,0,1-.775-1.892m3.454,3.27.089,0L22.1,30.589l0,.121-.089,0,0-.121q.055-1.805.109-3.61c0-.031,0-.046,0-.077m-6.847,8.512a1.466,1.466,0,0,1,.591-.113q2.831-.183,5.663-.344a1.5,1.5,0,0,1,.592.037.239.239,0,0,1,.046.18l0,.066a.252.252,0,0,1-.046.165,1.726,1.726,0,0,1-.606.1q-2.833.161-5.666.344a1.431,1.431,0,0,1-.6-.033c-.017-.016-.044-.05-.041-.156l0-.066a.245.245,0,0,1,.063-.183" transform="translate(-8.102 -16.156)" fill="#3f5fec"/>
    <path id="패스_202" data-name="패스 202" d="M13.125,24.681a6.524,6.524,0,0,1-2.776,2.2,11.036,11.036,0,0,1-3.568,1.047l.153-3.613a5.437,5.437,0,0,0,2.678-1.477,4.86,4.86,0,0,0,1.251-2.836q-1.242.09-2.484.183a1.112,1.112,0,0,1-.905-.216,1.207,1.207,0,0,1-.229-.9l.092-2.181q1.873-.145,3.747-.279l.072-1.85q2.305-.163,4.612-.311c-.026.74-.038,1.11-.064,1.85q1.785-.113,3.571-.217l-.068,2.179a1.464,1.464,0,0,1-.286.939,1.284,1.284,0,0,1-.916.34q-1.176.07-2.351.145a4.364,4.364,0,0,0,.96,2.686,3.9,3.9,0,0,0,2.542,1.123L19.042,27.1a9.853,9.853,0,0,1-3.446-.572,4.431,4.431,0,0,1-2.471-1.849m11.634,7.791A2.965,2.965,0,0,1,23.621,34.8a4.8,4.8,0,0,1-2.715.943q-4.842.265-9.68.6a4.124,4.124,0,0,1-2.647-.611,2.411,2.411,0,0,1-.995-2.2l.085-2.049a3.041,3.041,0,0,1,1.176-2.34,4.934,4.934,0,0,1,2.692-.974q4.8-.332,9.61-.595a4.205,4.205,0,0,1,2.653.643,2.475,2.475,0,0,1,1.014,2.2l-.053,2.047m-4.592-.84a.649.649,0,0,0-.188-.517,1.365,1.365,0,0,0-.922-.146q-2.829.164-5.656.35a1.554,1.554,0,0,0-.923.26.761.761,0,0,0-.235.543l0,.066a.585.585,0,0,0,.2.5,1.434,1.434,0,0,0,.91.125q2.831-.186,5.664-.351a1.609,1.609,0,0,0,.935-.24.726.726,0,0,0,.219-.529l0-.066m4.553-6.324a1.474,1.474,0,0,1-.5,1.112,2.008,2.008,0,0,1-1.274.47q-1.421.072-2.842.152l.126-4.161-1.393.079a1.184,1.184,0,0,1-.91-.287,1.073,1.073,0,0,1-.33-.87l.06-1.849q1.333-.08,2.666-.154.065-2.135.129-4.271,2.265-.125,4.531-.235Q24.85,20.3,24.72,25.308" transform="translate(-6.276 -13.369)" fill="#222c59"/>
    <path id="패스_203" data-name="패스 203" d="M9.492,8.182c-.026.74-.038,1.11-.064,1.85Q11.213,9.919,13,9.816q-.034,1.09-.068,2.179a1.464,1.464,0,0,1-.286.939,1.284,1.284,0,0,1-.916.34q-1.176.07-2.351.145a4.4,4.4,0,0,0,.96,2.686,3.938,3.938,0,0,0,2.542,1.123l-.113,3.611a10.017,10.017,0,0,1-3.446-.572A4.456,4.456,0,0,1,6.85,18.418a6.474,6.474,0,0,1-2.776,2.2A10.9,10.9,0,0,1,.505,21.668q.076-1.807.153-3.613a5.733,5.733,0,0,0,2.678-1.477,5.018,5.018,0,0,0,1.251-2.836q-1.242.09-2.484.183a1.112,1.112,0,0,1-.905-.216,1.206,1.206,0,0,1-.229-.9l.092-2.181q1.873-.145,3.747-.279c.029-.74.043-1.11.072-1.85q2.305-.163,4.612-.311m9.214.848q-.131,5.007-.262,10.014a1.473,1.473,0,0,1-.5,1.112,2.008,2.008,0,0,1-1.274.47q-1.421.072-2.842.152l.126-4.161L12.56,16.7a1.183,1.183,0,0,1-.91-.287,1.072,1.072,0,0,1-.33-.87l.061-1.849q1.333-.08,2.666-.154.065-2.135.129-4.271,2.265-.125,4.531-.235M14.869,21.315a4.2,4.2,0,0,1,2.653.643,2.474,2.474,0,0,1,1.014,2.2c-.021.819-.032,1.228-.053,2.047a2.955,2.955,0,0,1-1.138,2.33,4.776,4.776,0,0,1-2.715.943q-4.842.265-9.68.6A4.117,4.117,0,0,1,2.3,29.471a2.408,2.408,0,0,1-.995-2.2c.034-.82.051-1.229.085-2.049a3.027,3.027,0,0,1,1.176-2.34A4.9,4.9,0,0,1,5.26,21.91q4.8-.332,9.61-.595m-7.8,5.238q2.831-.186,5.664-.351a1.609,1.609,0,0,0,.935-.24.726.726,0,0,0,.219-.529c0-.026,0-.04,0-.066a.649.649,0,0,0-.188-.517,1.365,1.365,0,0,0-.922-.146q-2.829.164-5.656.35a1.552,1.552,0,0,0-.923.26.76.76,0,0,0-.235.543l0,.066a.584.584,0,0,0,.2.5,1.431,1.431,0,0,0,.91.125M9.988,7.678l-.479.03Q7.2,7.857,4.9,8.02l-.479.034L4.4,8.528c-.022.551-.032.826-.054,1.376q-1.633.119-3.266.245l-.48.037-.02.474Q.535,11.752.488,12.842a1.578,1.578,0,0,0,.343,1.216,1.517,1.517,0,0,0,1.253.341c.769-.058,1.153-.087,1.922-.142a4.282,4.282,0,0,1-.983,2,4.771,4.771,0,0,1-2.4,1.333l-.432.08-.018.425L.02,21.707,0,22.187l.492-.045a12.7,12.7,0,0,0,3.749-1.1A8.5,8.5,0,0,0,6.8,19.23a5.318,5.318,0,0,0,2.315,1.484,10.991,10.991,0,0,0,1.317.383q-2.579.16-5.156.338a5.91,5.91,0,0,0-2.983,1.088A3.594,3.594,0,0,0,.9,25.261L.819,27.31a2.813,2.813,0,0,0,1.171,2.56,4.919,4.919,0,0,0,2.941.685q4.84-.335,9.684-.6A5.763,5.763,0,0,0,17.633,28.9a3.489,3.489,0,0,0,1.339-2.715l.052-2.047a2.906,2.906,0,0,0-1.2-2.574,3.879,3.879,0,0,0-.957-.481,2.455,2.455,0,0,0,1.388-.587,1.965,1.965,0,0,0,.675-1.475q.129-5.007.257-10.014c0-.19.007-.284.012-.474l-.48.023q-2.265.11-4.529.235l-.48.027-.015.474-.117,3.8-.494.028a2.031,2.031,0,0,0,.329-1.15l.067-2.179.015-.474-.48.027q-1.545.089-3.09.186c.019-.55.028-.825.047-1.376.006-.19.01-.284.016-.474m-.071,6.18.978-.06-.059,1.772a1.934,1.934,0,0,0,.016.326q-.081-.07-.162-.147a3.213,3.213,0,0,1-.774-1.891m3.449,3.266.089-.005-.113,3.687,0,.121-.089.005c0-.048,0-.072,0-.121l.111-3.611,0-.077M6.518,25.643a1.465,1.465,0,0,1,.59-.113q2.829-.186,5.659-.35a1.5,1.5,0,0,1,.592.036.239.239,0,0,1,.045.18l0,.066a.253.253,0,0,1-.046.165,1.726,1.726,0,0,1-.606.1q-2.831.164-5.661.35a1.427,1.427,0,0,1-.6-.032c-.017-.015-.044-.05-.04-.155l0-.066a.245.245,0,0,1,.063-.183" transform="translate(0 -7.106)" fill="#fff"/>
    <path id="패스_204" data-name="패스 204" d="M777.49,19.438l-.031-2.4q2.278.055,4.556.125l.041,2.4q1.746.055,3.491.119.022,1.111.045,2.222a1.113,1.113,0,0,1-.307.912,1.385,1.385,0,0,1-.971.251q-4.636-.158-9.273-.251a1.482,1.482,0,0,1-.98-.3,1.2,1.2,0,0,1-.334-.93q-.01-1.111-.021-2.222,1.892.033,3.783.077m-3.262,7.432a3.406,3.406,0,0,1,.9-2.49,3.268,3.268,0,0,1,2.484-.892q2.123.052,4.246.115a3.539,3.539,0,0,1,2.511,1.028,3.687,3.687,0,0,1,.971,2.541q.076,3.84.152,7.679A3.058,3.058,0,0,1,782.1,38.19q-2.151-.064-4.3-.117a3.37,3.37,0,0,1-3.494-3.526q-.037-3.839-.075-7.677m4.667,6.7a1.28,1.28,0,0,0,.239.9.871.871,0,0,0,.593.225l.34.009a.807.807,0,0,0,.587-.193,1.2,1.2,0,0,0,.213-.885l-.087-5.522a1.289,1.289,0,0,0-.239-.909.89.89,0,0,0-.589-.214l-.338-.009a.826.826,0,0,0-.583.182q-.223.192-.213.9l.077,5.522m11.932-7.4q1.564.072,3.127.151.033,1.211.067,2.421a1.115,1.115,0,0,1-.455,1.054,2.166,2.166,0,0,1-1.289.267L790.922,30q.072,2.883.143,5.766a2.765,2.765,0,0,1-.8,2,2.991,2.991,0,0,1-2.085.736l-1.661-.065q-.209-10.111-.418-20.222,2.268.088,4.536.19.1,3.884.193,7.769" transform="translate(-716.049 -15.77)" fill="#3f5fec"/>
    <path id="패스_205" data-name="패스 205" d="M775.979,11.145l.041,2.4q1.746.055,3.491.119.022,1.111.045,2.222a1.113,1.113,0,0,1-.307.912,1.385,1.385,0,0,1-.971.251q-4.636-.158-9.273-.251a1.48,1.48,0,0,1-.98-.3,1.2,1.2,0,0,1-.334-.93q-.01-1.111-.021-2.222,1.892.033,3.783.077l-.031-2.4q2.278.055,4.556.125m8.619,1.232q.1,3.885.193,7.769,1.564.072,3.127.151.034,1.211.067,2.421a1.115,1.115,0,0,1-.455,1.054,2.166,2.166,0,0,1-1.289.267l-1.355-.063q.072,2.883.143,5.766a2.59,2.59,0,0,1-.8,2,2.792,2.792,0,0,1-2.085.736l-1.661-.065q-.209-10.111-.418-20.222,2.268.088,4.536.19m-8.779,5.206a3.54,3.54,0,0,1,2.511,1.028,3.687,3.687,0,0,1,.971,2.541q.076,3.84.152,7.679a3.058,3.058,0,0,1-3.391,3.339q-2.151-.064-4.3-.117a3.37,3.37,0,0,1-3.494-3.526l-.075-7.677a3.409,3.409,0,0,1,.9-2.49,3.27,3.27,0,0,1,2.484-.892q2.123.052,4.246.115m-2.128,11.088.34.009a.807.807,0,0,0,.587-.192,1.2,1.2,0,0,0,.213-.885l-.087-5.522a1.288,1.288,0,0,0-.239-.909.89.89,0,0,0-.589-.214l-.338-.009a.825.825,0,0,0-.583.182q-.223.192-.213.9l.077,5.522a1.279,1.279,0,0,0,.239.9.869.869,0,0,0,.593.225m2.76-17.985-.481-.015q-2.277-.069-4.554-.125l-.481-.011c0,.189,0,.284.006.474l.024,1.924q-1.65-.036-3.3-.066l-.482-.008c0,.189,0,.284,0,.473q.01,1.111.02,2.222a1.654,1.654,0,0,0,.5,1.285,1.964,1.964,0,0,0,1.3.43l.823.017a3.284,3.284,0,0,0-1.1.74,3.871,3.871,0,0,0-1.029,2.815q.036,3.839.072,7.677a4.052,4.052,0,0,0,1.093,2.841,4.1,4.1,0,0,0,2.9,1.167q2.152.053,4.3.117a3.975,3.975,0,0,0,2.863-1.01,3.586,3.586,0,0,0,1-2.285q.031,1.521.062,3.043c0,.189.006.284.01.474l.49.018,1.662.065a3.264,3.264,0,0,0,2.429-.859,3.016,3.016,0,0,0,.936-2.325l-.134-5.292.869.041a2.63,2.63,0,0,0,1.565-.338,1.52,1.52,0,0,0,.652-1.432q-.034-1.211-.068-2.421c-.005-.19-.008-.284-.013-.474l-.484-.025q-1.321-.067-2.642-.128l-.184-7.3c0-.19-.007-.284-.012-.474l-.481-.022q-2.267-.1-4.534-.189l-.481-.018c0,.19.006.284.01.474.008.409.012.614.021,1.023l-.1,0q-1.5-.056-3.008-.1l-.034-1.925c0-.189,0-.284-.008-.474m1.1,6.81.733.025a1.834,1.834,0,0,0,1.291-.36,1.151,1.151,0,0,0,.1-.1l.073,3.6a4.043,4.043,0,0,0-1.078-2.367,3.692,3.692,0,0,0-1.12-.8m-4.22,3.987a.367.367,0,0,1,.25-.061l.338.009a.394.394,0,0,1,.252.074,1.333,1.333,0,0,1,.084.561q.042,2.761.084,5.522a1.067,1.067,0,0,1-.074.553.333.333,0,0,1-.245.064l-.34-.009a.355.355,0,0,1-.254-.085h0a1.244,1.244,0,0,1-.083-.55q-.04-2.761-.079-5.522a1.278,1.278,0,0,1,.067-.557" transform="translate(-710.012 -9.751)" fill="#3f5fec"/>
    <path id="패스_206" data-name="패스 206" d="M768.269,8.894q-.015-1.2-.029-2.4,2.277.053,4.553.119.02,1.2.039,2.4,1.745.053,3.489.115.022,1.111.043,2.222a1.115,1.115,0,0,1-.307.913,1.385,1.385,0,0,1-.97.252q-4.633-.152-9.267-.241a1.478,1.478,0,0,1-.979-.3,1.2,1.2,0,0,1-.333-.929q-.01-1.111-.019-2.222,1.89.031,3.781.073M765,16.33a3.413,3.413,0,0,1,.9-2.491,3.27,3.27,0,0,1,2.483-.9q2.122.049,4.243.111a3.529,3.529,0,0,1,2.509,1.025,3.682,3.682,0,0,1,.969,2.54q.074,3.84.147,7.679a3.316,3.316,0,0,1-.884,2.465,3.279,3.279,0,0,1-2.507.877q-2.15-.062-4.3-.112a3.362,3.362,0,0,1-3.49-3.522L765,16.33m4.66,6.694a1.279,1.279,0,0,0,.238.9.868.868,0,0,0,.592.224l.34.009a.807.807,0,0,0,.587-.193,1.206,1.206,0,0,0,.213-.885l-.083-5.522a1.287,1.287,0,0,0-.239-.908.887.887,0,0,0-.589-.214l-.338-.009a.826.826,0,0,0-.583.183q-.223.192-.213.9.037,2.761.073,5.522m11.928-7.417q1.563.071,3.125.147.033,1.21.065,2.421a1.117,1.117,0,0,1-.456,1.055,2.166,2.166,0,0,1-1.288.268l-1.354-.062.139,5.766a2.77,2.77,0,0,1-.8,2,2.993,2.993,0,0,1-2.084.738l-1.66-.063-.406-20.222q2.267.085,4.533.184Z" transform="translate(-707.517 -6.012)" fill="#222c59"/>
    <path id="패스_207" data-name="패스 207" d="M766.763.6q.02,1.2.039,2.4,1.745.053,3.489.115.022,1.111.043,2.222a1.115,1.115,0,0,1-.307.913,1.385,1.385,0,0,1-.97.252q-4.633-.152-9.267-.241a1.476,1.476,0,0,1-.979-.3,1.2,1.2,0,0,1-.333-.929l-.019-2.222q1.89.031,3.781.073-.015-1.2-.029-2.4,2.277.053,4.553.119m8.613,1.222.188,7.769q1.563.071,3.125.147l.065,2.421a1.118,1.118,0,0,1-.456,1.055,2.166,2.166,0,0,1-1.288.268l-1.354-.062q.07,2.883.139,5.766a2.6,2.6,0,0,1-.8,2,2.794,2.794,0,0,1-2.084.738l-1.66-.063q-.2-10.111-.406-20.222,2.267.085,4.533.184M766.6,7.042a3.53,3.53,0,0,1,2.509,1.025,3.683,3.683,0,0,1,.969,2.54q.074,3.84.147,7.679a3.319,3.319,0,0,1-.884,2.465,3.283,3.283,0,0,1-2.507.877q-2.149-.062-4.3-.112a3.362,3.362,0,0,1-3.49-3.522q-.035-3.839-.07-7.677a3.416,3.416,0,0,1,.9-2.491,3.272,3.272,0,0,1,2.483-.9q2.122.049,4.243.111m-2.133,11.091.34.009a.808.808,0,0,0,.587-.193,1.206,1.206,0,0,0,.213-.885q-.042-2.761-.083-5.522a1.287,1.287,0,0,0-.239-.908.888.888,0,0,0-.589-.214l-.338-.009a.825.825,0,0,0-.583.183q-.223.192-.213.9.037,2.761.073,5.522a1.277,1.277,0,0,0,.238.9.867.867,0,0,0,.593.224M767.235.144l-.48-.015Q764.48.063,762.2.011L761.724,0c0,.189,0,.284.006.474.009.77.014,1.155.023,1.924q-1.649-.034-3.3-.062l-.481-.008c0,.189,0,.284,0,.473q.009,1.111.018,2.222a1.653,1.653,0,0,0,.5,1.284,1.959,1.959,0,0,0,1.3.429l.822.016a3.29,3.29,0,0,0-1.1.741,3.879,3.879,0,0,0-1.03,2.816q.034,3.839.067,7.677a4.047,4.047,0,0,0,1.09,2.84,4.092,4.092,0,0,0,2.893,1.164q2.151.05,4.3.112a3.978,3.978,0,0,0,2.861-1.014,3.593,3.593,0,0,0,1-2.286q.03,1.521.06,3.043c0,.189.006.284.009.474l.49.018,1.661.063a3.265,3.265,0,0,0,2.428-.862,3.022,3.022,0,0,0,.937-2.326l-.13-5.292.868.04a2.63,2.63,0,0,0,1.565-.34,1.524,1.524,0,0,0,.652-1.433q-.033-1.211-.067-2.421c-.005-.19-.008-.284-.013-.474l-.484-.024q-1.32-.066-2.64-.125-.09-3.648-.18-7.3l-.012-.474-.48-.022q-2.265-.1-4.531-.184l-.48-.018c0,.19.006.284.009.474.008.409.012.614.02,1.023l-.1,0q-1.5-.054-3.006-.1c-.013-.77-.019-1.155-.032-1.925,0-.189,0-.284-.008-.474m1.1,6.809.732.024a1.834,1.834,0,0,0,1.291-.362,1.161,1.161,0,0,0,.1-.1q.035,1.8.071,3.6a4.038,4.038,0,0,0-1.076-2.366,3.682,3.682,0,0,0-1.119-.8m-4.219,3.992a.367.367,0,0,1,.25-.061l.338.009a.393.393,0,0,1,.252.074,1.332,1.332,0,0,1,.083.561l.081,5.522a1.069,1.069,0,0,1-.074.553.332.332,0,0,1-.245.065l-.34-.009a.354.354,0,0,1-.254-.085h0a1.246,1.246,0,0,1-.083-.55q-.038-2.761-.076-5.522a1.282,1.282,0,0,1,.067-.557" transform="translate(-701.488)" fill="#fff"/>
    <path id="패스_208" data-name="패스 208" d="M1051.979,55.852a2.638,2.638,0,0,1-.765,1.972,2.853,2.853,0,0,1-2.068.669l-1.659-.119-.024-.617a14.169,14.169,0,0,1-2.392.3c-.658.007-1.292,0-1.884-.034q-3.229-.2-6.458-.373a1.791,1.791,0,0,1-1.193-.446,1.6,1.6,0,0,1-.44-1.154q-.264-9.3-.527-18.6,2.267.115,4.534.243.261,8.355.522,16.71,1.78.1,3.559.215a19.091,19.091,0,0,0,2.305-.025c.848-.049,1.472-.112,1.847-.159q-.311-8.149-.622-16.3,2.265.161,4.529.335.367,8.692.735,17.383" transform="translate(-957.471 -34.657)" fill="#3f5fec"/>
    <path id="패스_209" data-name="패스 209" d="M1045.108,32.289q.367,8.692.734,17.383a2.478,2.478,0,0,1-.765,1.972,2.67,2.67,0,0,1-2.068.669l-1.659-.119c-.009-.247-.014-.37-.024-.617a13.253,13.253,0,0,1-2.392.3q-1,.022-1.884-.034-3.228-.2-6.458-.373a1.791,1.791,0,0,1-1.194-.446,1.6,1.6,0,0,1-.44-1.154q-.264-9.3-.527-18.6,2.268.114,4.534.243.261,8.355.522,16.71,1.78.1,3.559.215a20.994,20.994,0,0,0,2.305-.025q1.285-.089,1.847-.159-.311-8.15-.622-16.3,2.265.161,4.53.335m.46-.437-.48-.038q-2.263-.175-4.528-.335l-.48-.034c.007.19.011.284.018.474q.3,7.952.6,15.9c-.358.035-.836.073-1.429.114a20.493,20.493,0,0,1-2.237.025q-1.535-.1-3.07-.187-.257-8.118-.514-16.236c-.006-.19-.009-.284-.015-.474l-.48-.028q-2.266-.129-4.532-.243l-.481-.024c.005.19.008.285.013.474q.259,9.3.519,18.6a2.08,2.08,0,0,0,.6,1.5,2.316,2.316,0,0,0,1.539.6q3.231.172,6.461.374c.6.038,1.25.05,1.929.035a11.145,11.145,0,0,0,1.865-.189c.007.189.011.283.018.473l.49.034,1.66.119a3.115,3.115,0,0,0,2.408-.781,2.881,2.881,0,0,0,.893-2.3q-.371-8.692-.742-17.384c-.008-.19-.012-.285-.02-.474" transform="translate(-951.335 -28.478)" fill="#3f5fec"/>
    <path id="패스_210" data-name="패스 210" d="M1042.573,45.043a2.644,2.644,0,0,1-.766,1.973,2.855,2.855,0,0,1-2.067.672l-1.658-.117-.023-.617a14.167,14.167,0,0,1-2.39.3c-.657.008-1.292,0-1.883-.032q-3.227-.2-6.454-.366a1.786,1.786,0,0,1-1.193-.445,1.593,1.593,0,0,1-.439-1.154q-.258-9.3-.515-18.6,2.266.112,4.531.238.256,8.355.511,16.709,1.779.1,3.557.211a19.052,19.052,0,0,0,2.3-.028c.847-.05,1.471-.113,1.846-.161l-.612-16.3q2.264.158,4.527.33.362,8.691.724,17.383" transform="translate(-948.786 -24.673)" fill="#222c59"/>
    <path id="패스_211" data-name="패스 211" d="M1035.721,21.489q.362,8.691.724,17.383a2.482,2.482,0,0,1-.766,1.973,2.671,2.671,0,0,1-2.067.672l-1.658-.117-.023-.617a13.248,13.248,0,0,1-2.391.3q-1,.023-1.882-.032-3.227-.2-6.454-.366a1.786,1.786,0,0,1-1.192-.445,1.593,1.593,0,0,1-.439-1.154q-.258-9.3-.515-18.6,2.266.112,4.531.238.256,8.355.511,16.709,1.779.1,3.557.211a20.993,20.993,0,0,0,2.3-.028q1.285-.091,1.846-.161l-.612-16.3q2.264.158,4.527.33m.46-.437-.48-.037q-2.262-.172-4.525-.33l-.48-.033c.007.19.01.284.018.474q.295,7.951.59,15.9c-.358.035-.836.074-1.428.116a20.452,20.452,0,0,1-2.236.028q-1.534-.1-3.068-.183l-.5-16.236c-.006-.19-.009-.284-.015-.474l-.48-.027q-2.264-.126-4.529-.238l-.481-.023c.005.19.008.285.013.474q.253,9.3.507,18.6a2.077,2.077,0,0,0,.6,1.5,2.311,2.311,0,0,0,1.538.6q3.229.168,6.457.366c.6.037,1.249.048,1.928.033a11.139,11.139,0,0,0,1.864-.191c.007.189.01.283.018.472l.489.034,1.659.117a3.117,3.117,0,0,0,2.407-.784,2.887,2.887,0,0,0,.894-2.3l-.731-17.383-.02-.474" transform="translate(-942.658 -18.501)" fill="#fff"/>
    <path id="패스_212" data-name="패스 212" d="M254.287,46.411q.036-1.848.071-3.7,2.284-.079,4.568-.145l-.056,3.7q3.676-.1,7.354-.161c-.006.713-.009,1.069-.015,1.782a1.541,1.541,0,0,1-.511,1.2,1.946,1.946,0,0,1-1.3.463q-7.9.155-15.8.5a1.793,1.793,0,0,1-1.274-.381,1.381,1.381,0,0,1-.481-1.164l.046-1.783q3.7-.174,7.4-.308m2.36-7.974a8.881,8.881,0,0,1-3.635,3.249,12.838,12.838,0,0,1-5.444,1.571l.089-3.5a8.239,8.239,0,0,0,4.543-1.789,5.513,5.513,0,0,0,2.245-4.4q.038-1.969.077-3.939,2.279-.08,4.559-.145-.03,1.969-.06,3.938a4.955,4.955,0,0,0,2.1,4.267,7.669,7.669,0,0,0,4.49,1.5q-.016,1.749-.032,3.5a12.561,12.561,0,0,1-5.4-1.226,7.705,7.705,0,0,1-3.527-3.021" transform="translate(-228.449 -27.283)" fill="#3f5fec"/>
    <path id="패스_213" data-name="패스 213" d="M253.007,23.434q-.03,1.969-.06,3.938a4.991,4.991,0,0,0,2.1,4.267,7.84,7.84,0,0,0,4.49,1.5q-.016,1.749-.032,3.5a13.389,13.389,0,0,1-5.4-1.226,8.031,8.031,0,0,1-3.527-3.021,9.034,9.034,0,0,1-3.635,3.249,13.144,13.144,0,0,1-5.444,1.571l.089-3.5a8.416,8.416,0,0,0,4.543-1.789,5.559,5.559,0,0,0,2.245-4.4q.038-1.969.077-3.939,2.279-.08,4.559-.145m-.154,13.089q-.028,1.848-.056,3.7,3.676-.1,7.354-.161c-.006.713-.009,1.069-.015,1.782a1.542,1.542,0,0,1-.511,1.2,1.946,1.946,0,0,1-1.3.463q-7.9.155-15.8.5a1.794,1.794,0,0,1-1.274-.381,1.381,1.381,0,0,1-.481-1.164c.019-.713.028-1.07.046-1.783q3.7-.174,7.4-.308.036-1.848.071-3.7,2.284-.079,4.568-.145m.643-13.576-.481.013q-2.279.065-4.557.145l-.481.017c0,.189-.006.284-.009.474q-.039,1.969-.078,3.939a5.049,5.049,0,0,1-2.046,4.021,7.889,7.889,0,0,1-4.247,1.682l-.485.023c0,.19-.007.284-.012.474l-.091,3.5c0,.189-.007.284-.012.474l.487-.023a14.617,14.617,0,0,0,5.676-1.636,10.289,10.289,0,0,0,3.4-2.775,8.894,8.894,0,0,0,3.308,2.562,13.62,13.62,0,0,0,5.63,1.276l.487-.008c0-.189,0-.284,0-.474q.015-1.749.031-3.5l0-.473-.485.008a6.934,6.934,0,0,1-4.2-1.413,4.533,4.533,0,0,1-1.91-3.895q.029-1.969.059-3.938c0-.189,0-.284.007-.474m-.149,13.089-.487.013q-2.283.065-4.566.145l-.487.017-.009.474-.064,3.223q-3.453.128-6.9.29l-.488.023-.012.474-.047,1.783a1.8,1.8,0,0,0,.635,1.51,2.259,2.259,0,0,0,1.6.486q7.9-.347,15.8-.5a2.454,2.454,0,0,0,1.633-.591,2.005,2.005,0,0,0,.674-1.549c.006-.713.009-1.069.015-1.782,0-.189,0-.284,0-.474l-.488.008q-3.432.057-6.862.147.024-1.611.048-3.223c0-.189,0-.284.007-.474" transform="translate(-222.374 -21.237)" fill="#3f5fec"/>
    <path id="패스_214" data-name="패스 214" d="M245.3,36.34q.037-1.848.074-3.7,2.282-.082,4.565-.15-.029,1.848-.059,3.7,3.674-.1,7.348-.169c-.007.713-.01,1.069-.017,1.782A1.544,1.544,0,0,1,256.7,39a1.946,1.946,0,0,1-1.3.464q-7.9.164-15.784.519a1.788,1.788,0,0,1-1.273-.38,1.379,1.379,0,0,1-.48-1.164c.019-.713.028-1.07.047-1.783q3.694-.178,7.39-.316m2.364-7.976a8.9,8.9,0,0,1-3.634,3.253,12.836,12.836,0,0,1-5.441,1.577q.046-1.75.091-3.5a8.242,8.242,0,0,0,4.54-1.794,5.525,5.525,0,0,0,2.246-4.407q.039-1.969.079-3.939,2.278-.082,4.556-.15-.031,1.969-.063,3.938a4.947,4.947,0,0,0,2.092,4.264,7.648,7.648,0,0,0,4.485,1.5l-.034,3.5a12.528,12.528,0,0,1-5.4-1.22,7.682,7.682,0,0,1-3.523-3.017" transform="translate(-220.131 -17.958)" fill="#222c59"/>
    <path id="패스_215" data-name="패스 215" d="M244.026,13.351q-.031,1.969-.063,3.938a4.983,4.983,0,0,0,2.092,4.264,7.818,7.818,0,0,0,4.486,1.5l-.034,3.5a13.355,13.355,0,0,1-5.4-1.22,8.007,8.007,0,0,1-3.523-3.017,9.053,9.053,0,0,1-3.634,3.253,13.143,13.143,0,0,1-5.441,1.577q.046-1.75.091-3.5a8.42,8.42,0,0,0,4.54-1.794,5.571,5.571,0,0,0,2.246-4.407q.039-1.969.079-3.939,2.278-.082,4.556-.15m-.163,13.089q-.029,1.848-.059,3.7,3.674-.1,7.348-.169c-.007.713-.01,1.069-.016,1.782a1.545,1.545,0,0,1-.511,1.2,1.947,1.947,0,0,1-1.3.464q-7.9.164-15.784.519a1.789,1.789,0,0,1-1.273-.38,1.379,1.379,0,0,1-.48-1.164c.019-.713.028-1.07.047-1.783q3.694-.178,7.39-.316.037-1.848.074-3.7,2.282-.082,4.565-.15m.651-13.577-.481.014q-2.277.068-4.554.15l-.48.018-.01.474q-.04,1.969-.081,3.939a5.06,5.06,0,0,1-2.047,4.023,7.892,7.892,0,0,1-4.245,1.687l-.485.023-.013.474-.093,3.5-.013.474.487-.023a14.618,14.618,0,0,0,5.673-1.642,10.31,10.31,0,0,0,3.4-2.779,8.868,8.868,0,0,0,3.3,2.558,13.585,13.585,0,0,0,5.625,1.269l.487-.009c0-.189,0-.284,0-.474q.016-1.749.033-3.5c0-.189,0-.284,0-.474l-.485.009a6.915,6.915,0,0,1-4.193-1.408,4.525,4.525,0,0,1-1.906-3.893q.031-1.969.061-3.938c0-.189,0-.284.007-.474m-.157,13.089-.486.014q-2.282.068-4.563.15l-.486.018-.01.474q-.033,1.612-.066,3.223-3.45.132-6.9.3l-.488.024c-.005.19-.008.284-.013.474L231.3,32.41a1.8,1.8,0,0,0,.634,1.509,2.253,2.253,0,0,0,1.6.484q7.893-.356,15.791-.519a2.455,2.455,0,0,0,1.632-.593,2.01,2.01,0,0,0,.674-1.549c.006-.713.009-1.069.016-1.782,0-.189,0-.284,0-.474l-.488.008q-3.429.061-6.857.155.025-1.611.05-3.223c0-.189,0-.284.007-.474" transform="translate(-214.06 -11.905)" fill="#fff"/>
    <path id="패스_216" data-name="패스 216" d="M488.4,51.9q-.535-1.715-1.067-3.431-2.6.006-5.195.029-.554,1.722-1.111,3.443-2.378.03-4.756.074,3.353-9.556,6.621-19.141,1.879-.016,3.758-.021,3.221,9.548,6.528,19.067-2.389-.018-4.779-.021m-3.536-12.309q-.046.155-.125.485t-.125.507q-.718,2.337-1.44,4.673,1.617-.012,3.235-.018-.674-2.328-1.344-4.658-.045-.176-.1-.506a4.723,4.723,0,0,0-.1-.483" transform="translate(-440.782 -30.405)" fill="#222c59"/>
    <path id="패스_217" data-name="패스 217" d="M473.918,24.019q3.221,9.548,6.528,19.067-2.389-.018-4.779-.021-.535-1.715-1.067-3.431-2.6.006-5.195.029-.554,1.722-1.111,3.443-2.378.03-4.756.074,3.353-9.556,6.621-19.141,1.879-.016,3.758-.021m-3.478,12.4q1.617-.012,3.235-.018-.674-2.328-1.344-4.658-.045-.176-.1-.505a4.754,4.754,0,0,0-.1-.483q-.046.155-.125.485t-.125.507q-.718,2.337-1.44,4.673m4-13.114h-.521q-1.878,0-3.755.021l-.521,0-.167.488q-3.274,9.589-6.632,19.149l-.331.94,1.018-.021q2.379-.045,4.759-.074l.543-.006.163-.5q.475-1.469.947-2.939,2.056-.017,4.112-.023.453,1.463.909,2.925l.157.505h.546q2.391,0,4.782.021l1.019.009-.327-.937q-3.311-9.523-6.538-19.075l-.164-.486m-3.018,12.4q.334-1.083.667-2.166.311,1.08.622,2.159l-1.289.007" transform="translate(-428.046 -21.571)" fill="#222c59"/>
    <path id="패스_218" data-name="패스 218" d="M715.8,33.229q2.27.024,4.54.063.084,8.755.168,17.51a1.31,1.31,0,0,1-.535,1.1,1.965,1.965,0,0,1-1.27.409q-1.4-.02-2.8-.034-.052-9.524-.1-19.049" transform="translate(-662.461 -30.753)" fill="#222c59"/>
    <path id="패스_219" data-name="패스 219" d="M711.333,24.388q.084,8.755.168,17.51a1.31,1.31,0,0,1-.535,1.1,1.965,1.965,0,0,1-1.27.409q-1.4-.02-2.8-.034-.052-9.524-.1-19.049,2.27.024,4.54.063m.715-.7-.722-.013q-2.268-.038-4.537-.063l-.722-.007c0,.284,0,.426,0,.71q.046,9.524.091,19.049c0,.284,0,.426,0,.71l.735.007q1.4.014,2.8.035a2.7,2.7,0,0,0,1.733-.56,1.989,1.989,0,0,0,.8-1.647q-.09-8.755-.179-17.51c0-.284,0-.426-.007-.71" transform="translate(-653.45 -21.849)" fill="#222c59"/>
    <path id="패스_220" data-name="패스 220" d="M479.234,41.592q-.534-1.714-1.064-3.43-2.6.008-5.191.035-.555,1.723-1.112,3.445-2.376.032-4.752.08,3.356-9.56,6.629-19.149,1.878-.018,3.755-.025,3.213,9.545,6.512,19.06-2.388-.015-4.776-.015m-3.526-12.3q-.046.155-.125.485t-.126.507q-.719,2.338-1.442,4.675,1.616-.014,3.232-.022-.672-2.328-1.34-4.656-.045-.175-.1-.505a4.72,4.72,0,0,0-.1-.483" transform="translate(-432.304 -20.867)" fill="#3f5fec"/>
    <path id="패스_221" data-name="패스 221" d="M469.009,16.653q3.213,9.545,6.512,19.06-2.388-.015-4.776-.015-.534-1.714-1.064-3.43-2.6.008-5.191.035-.555,1.723-1.112,3.445-2.376.032-4.752.08,3.356-9.56,6.629-19.149,1.877-.018,3.755-.025m-3.483,12.406q1.616-.014,3.232-.022-.672-2.328-1.34-4.656-.045-.176-.1-.505a4.728,4.728,0,0,0-.1-.483q-.046.155-.125.485t-.126.507q-.719,2.338-1.442,4.675m3.831-12.881h-.347q-1.877.006-3.754.025l-.347,0-.111.326q-3.276,9.591-6.636,19.154l-.221.627.678-.014q2.377-.047,4.754-.08l.362,0,.108-.335q.5-1.554,1-3.108,2.235-.024,4.47-.03.479,1.546.959,3.092l.1.337h.364q2.389,0,4.778.015l.679.005-.217-.625q-3.3-9.518-6.519-19.065l-.109-.324m-3.177,12.4q.5-1.628,1-3.256.465,1.622.933,3.243c-.774,0-1.162.007-1.936.013" transform="translate(-423.815 -14.972)" fill="#fff"/>
    <path id="패스_222" data-name="패스 222" d="M706.633,22.809q2.269.022,4.537.057.078,8.755.157,17.51a1.313,1.313,0,0,1-.536,1.1,1.966,1.966,0,0,1-1.27.41q-1.4-.019-2.8-.031-.046-9.524-.092-19.049" transform="translate(-653.974 -21.109)" fill="#3f5fec"/>
    <path id="패스_223" data-name="패스 223" d="M705.169,16.936q.078,8.755.157,17.51a1.313,1.313,0,0,1-.536,1.1,1.966,1.966,0,0,1-1.27.41q-1.4-.019-2.8-.031-.046-9.524-.092-19.049,2.269.022,4.537.057m.477-.465-.481-.008q-2.267-.036-4.535-.057l-.481,0c0,.189,0,.284,0,.474q.042,9.524.084,19.049c0,.189,0,.284,0,.474l.49,0q1.4.012,2.8.031a2.455,2.455,0,0,0,1.578-.512,1.774,1.774,0,0,0,.712-1.466q-.082-8.755-.165-17.51c0-.189,0-.284,0-.474" transform="translate(-647.973 -15.179)" fill="#fff"/>
  </g>
</svg>
