<svg id="image" xmlns="http://www.w3.org/2000/svg" width="42.286" height="37" viewBox="0 0 42.286 37">
  <path id="패스_226" data-name="패스 226" d="M16.048,10.523A6.523,6.523,0,1,1,9.525,4a6.523,6.523,0,0,1,6.523,6.523" transform="translate(3.746 2.533)" fill="#bce9ff"/>
  <path id="패스_227" data-name="패스 227" d="M5.288,1A5.286,5.286,0,0,0,0,6.286V32.714A5.286,5.286,0,0,0,5.288,38H37a5.286,5.286,0,0,0,5.286-5.286V6.286A5.286,5.286,0,0,0,37,1ZM37,3.643a2.643,2.643,0,0,1,2.643,2.643V23.464l-9.982-5.146a1.321,1.321,0,0,0-1.525.246l-9.8,9.805L11.3,23.686a1.321,1.321,0,0,0-1.665.164L2.645,30.071V6.286A2.643,2.643,0,0,1,5.288,3.643Z" transform="translate(-0.002 -1)" fill="#bce9ff"/>
</svg>
