<svg id="my_edit_info" xmlns="http://www.w3.org/2000/svg" width="36" height="35" viewBox="0 0 36 35">
  <path id="person-fill-gear" d="M25.143,9.5A7.609,7.609,0,0,1,17.429,17,7.609,7.609,0,0,1,9.714,9.5,7.609,7.609,0,0,1,17.429,2a7.609,7.609,0,0,1,7.714,7.5M2,29.5A2.5,2.5,0,0,0,4.571,32H18.087a10.969,10.969,0,0,1-.658-3.75,11.119,11.119,0,0,1,3.97-8.483,28.092,28.092,0,0,0-3.97-.267C4.571,19.5,2,27,2,29.5m25.421-8.85a1.661,1.661,0,0,1,3.16,0l.111.37a1.617,1.617,0,0,0,.949,1.029,1.688,1.688,0,0,0,1.419-.074l.35-.185a1.626,1.626,0,0,1,2.237,2.173l-.193.34a1.56,1.56,0,0,0-.074,1.378,1.63,1.63,0,0,0,1.057.922l.383.112a1.59,1.59,0,0,1,0,3.073l-.386.108a1.63,1.63,0,0,0-1.055.924,1.56,1.56,0,0,0,.078,1.378l.19.34a1.627,1.627,0,0,1-2.237,2.175l-.35-.187a1.688,1.688,0,0,0-1.418-.072,1.617,1.617,0,0,0-.948,1.027l-.116.373a1.662,1.662,0,0,1-3.16,0l-.111-.375a1.617,1.617,0,0,0-.951-1.026,1.688,1.688,0,0,0-1.418.076l-.35.185a1.627,1.627,0,0,1-2.237-2.175l.193-.34a1.56,1.56,0,0,0,.074-1.378,1.63,1.63,0,0,0-1.057-.922l-.381-.112a1.589,1.589,0,0,1,0-3.073l.381-.108a1.63,1.63,0,0,0,1.058-.923,1.56,1.56,0,0,0-.076-1.38l-.19-.34a1.626,1.626,0,0,1,2.235-2.175l.35.187a1.688,1.688,0,0,0,1.418.072,1.617,1.617,0,0,0,.948-1.027Zm5.436,7.6A3.859,3.859,0,1,0,29,32a3.8,3.8,0,0,0,3.857-3.75" transform="translate(-2 -2)" fill="#3f5fec"/>
  <rect id="사각형_71" data-name="사각형 71" width="36" height="35" fill="none"/>
</svg>
