<svg id="my_order_list" xmlns="http://www.w3.org/2000/svg" width="36" height="35" viewBox="0 0 36 35">
  <g id="clipboard-check-fill" transform="translate(2)">
    <path id="패스_232" data-name="패스 232" d="M8.656,0A3.656,3.656,0,0,0,5,3.656V6.094A3.656,3.656,0,0,0,8.656,9.75h7.313a3.656,3.656,0,0,0,3.656-3.656V3.656A3.656,3.656,0,0,0,15.969,0Zm7.313,2.438a1.219,1.219,0,0,1,1.219,1.219V6.094a1.219,1.219,0,0,1-1.219,1.219H8.656A1.219,1.219,0,0,1,7.438,6.094V3.656A1.219,1.219,0,0,1,8.656,2.438Z" transform="translate(3.688)" fill="#3f5fec"/>
    <path id="패스_233" data-name="패스 233" d="M7.429,1.5H5.286A4.256,4.256,0,0,0,1,5.725V27.9a4.256,4.256,0,0,0,4.286,4.225H26.714A4.256,4.256,0,0,0,31,27.9V5.725A4.256,4.256,0,0,0,26.714,1.5H24.571V3.612a5.319,5.319,0,0,1-5.357,5.281H12.786A5.319,5.319,0,0,1,7.429,3.612ZM22.116,17.034l-6.429,6.337a1.082,1.082,0,0,1-1.517,0L10.956,20.2a1.047,1.047,0,0,1,0-1.5,1.084,1.084,0,0,1,1.517,0l2.456,2.423,5.67-5.591a1.084,1.084,0,0,1,1.517,0,1.047,1.047,0,0,1,0,1.5" transform="translate(0 2.156)" fill="#3f5fec"/>
  </g>
  <rect id="사각형_69" data-name="사각형 69" width="36" height="35" fill="none"/>
</svg>
