<svg id="my_review_list" xmlns="http://www.w3.org/2000/svg" width="36" height="35" viewBox="0 0 36 35">
  <path id="chat-dots-fill" d="M32,15c0,7.732-7.164,14-16,14a18,18,0,0,1-4.694-.612,29.206,29.206,0,0,1-8.362,2.468.52.52,0,0,1-.546-.724A21.319,21.319,0,0,0,3.938,24.2,13.006,13.006,0,0,1,0,15C0,7.268,7.164,1,16,1S32,7.268,32,15M10,15a2,2,0,1,0-2,2,2,2,0,0,0,2-2m8,0a2,2,0,1,0-2,2,2,2,0,0,0,2-2m6,2a2,2,0,1,0-2-2,2,2,0,0,0,2,2" transform="translate(2 1)" fill="#3f5fec"/>
  <rect id="사각형_70" data-name="사각형 70" width="36" height="35" fill="none"/>
</svg>
