<svg id="star_4" xmlns="http://www.w3.org/2000/svg" width="80" height="16" viewBox="0 0 80 16">
  <path id="다각형_25" data-name="다각형 25" d="M7.052,2.82a1,1,0,0,1,1.9,0l.83,2.468a1,1,0,0,0,.921.681l2.585.069a1,1,0,0,1,.6,1.778L11.751,9.536a1,1,0,0,0-.335,1.05l.747,2.646a1,1,0,0,1-1.549,1.082L8.586,12.846a1,1,0,0,0-1.172,0L5.386,14.314a1,1,0,0,1-1.549-1.082l.747-2.646a1,1,0,0,0-.335-1.05L2.116,7.817a1,1,0,0,1,.6-1.778L5.3,5.969a1,1,0,0,0,.921-.681Z" fill="#ffc400"/>
  <path id="다각형_24" data-name="다각형 24" d="M7.052,2.82a1,1,0,0,1,1.9,0l.83,2.468a1,1,0,0,0,.921.681l2.585.069a1,1,0,0,1,.6,1.778L11.751,9.536a1,1,0,0,0-.335,1.05l.747,2.646a1,1,0,0,1-1.549,1.082L8.586,12.846a1,1,0,0,0-1.172,0L5.386,14.314a1,1,0,0,1-1.549-1.082l.747-2.646a1,1,0,0,0-.335-1.05L2.116,7.817a1,1,0,0,1,.6-1.778L5.3,5.969a1,1,0,0,0,.921-.681Z" transform="translate(16)" fill="#ffc400"/>
  <path id="다각형_23" data-name="다각형 23" d="M7.052,2.82a1,1,0,0,1,1.9,0l.83,2.468a1,1,0,0,0,.921.681l2.585.069a1,1,0,0,1,.6,1.778L11.751,9.536a1,1,0,0,0-.335,1.05l.747,2.646a1,1,0,0,1-1.549,1.082L8.586,12.846a1,1,0,0,0-1.172,0L5.386,14.314a1,1,0,0,1-1.549-1.082l.747-2.646a1,1,0,0,0-.335-1.05L2.116,7.817a1,1,0,0,1,.6-1.778L5.3,5.969a1,1,0,0,0,.921-.681Z" transform="translate(32)" fill="#ffc400"/>
  <path id="다각형_22" data-name="다각형 22" d="M7.052,2.82a1,1,0,0,1,1.9,0l.83,2.468a1,1,0,0,0,.921.681l2.585.069a1,1,0,0,1,.6,1.778L11.751,9.536a1,1,0,0,0-.335,1.05l.747,2.646a1,1,0,0,1-1.549,1.082L8.586,12.846a1,1,0,0,0-1.172,0L5.386,14.314a1,1,0,0,1-1.549-1.082l.747-2.646a1,1,0,0,0-.335-1.05L2.116,7.817a1,1,0,0,1,.6-1.778L5.3,5.969a1,1,0,0,0,.921-.681Z" transform="translate(48)" fill="#ffc400"/>
  <path id="다각형_21" data-name="다각형 21" d="M7.052,2.82a1,1,0,0,1,1.9,0l.83,2.468a1,1,0,0,0,.921.681l2.585.069a1,1,0,0,1,.6,1.778L11.751,9.536a1,1,0,0,0-.335,1.05l.747,2.646a1,1,0,0,1-1.549,1.082L8.586,12.846a1,1,0,0,0-1.172,0L5.386,14.314a1,1,0,0,1-1.549-1.082l.747-2.646a1,1,0,0,0-.335-1.05L2.116,7.817a1,1,0,0,1,.6-1.778L5.3,5.969a1,1,0,0,0,.921-.681Z" transform="translate(64)" fill="#dbe2f1"/>
</svg>
