<svg id="star_2" xmlns="http://www.w3.org/2000/svg" width="80" height="16" viewBox="0 0 80 16">
  <path id="다각형_10" data-name="다각형 10" d="M7.052,2.82a1,1,0,0,1,1.9,0l.83,2.468a1,1,0,0,0,.921.681l2.585.069a1,1,0,0,1,.6,1.778L11.751,9.536a1,1,0,0,0-.335,1.05l.747,2.646a1,1,0,0,1-1.549,1.082L8.586,12.846a1,1,0,0,0-1.172,0L5.386,14.314a1,1,0,0,1-1.549-1.082l.747-2.646a1,1,0,0,0-.335-1.05L2.116,7.817a1,1,0,0,1,.6-1.778L5.3,5.969a1,1,0,0,0,.921-.681Z" fill="#ffc400"/>
  <path id="다각형_15" data-name="다각형 15" d="M7.052,2.82a1,1,0,0,1,1.9,0l.83,2.468a1,1,0,0,0,.921.681l2.585.069a1,1,0,0,1,.6,1.778L11.751,9.536a1,1,0,0,0-.335,1.05l.747,2.646a1,1,0,0,1-1.549,1.082L8.586,12.846a1,1,0,0,0-1.172,0L5.386,14.314a1,1,0,0,1-1.549-1.082l.747-2.646a1,1,0,0,0-.335-1.05L2.116,7.817a1,1,0,0,1,.6-1.778L5.3,5.969a1,1,0,0,0,.921-.681Z" fill="#ffc400"/>
  <path id="다각형_9" data-name="다각형 9" d="M7.052,2.82a1,1,0,0,1,1.9,0l.83,2.468a1,1,0,0,0,.921.681l2.585.069a1,1,0,0,1,.6,1.778L11.751,9.536a1,1,0,0,0-.335,1.05l.747,2.646a1,1,0,0,1-1.549,1.082L8.586,12.846a1,1,0,0,0-1.172,0L5.386,14.314a1,1,0,0,1-1.549-1.082l.747-2.646a1,1,0,0,0-.335-1.05L2.116,7.817a1,1,0,0,1,.6-1.778L5.3,5.969a1,1,0,0,0,.921-.681Z" transform="translate(16)" fill="#ffc400"/>
  <path id="다각형_14" data-name="다각형 14" d="M7.052,2.82a1,1,0,0,1,1.9,0l.83,2.468a1,1,0,0,0,.921.681l2.585.069a1,1,0,0,1,.6,1.778L11.751,9.536a1,1,0,0,0-.335,1.05l.747,2.646a1,1,0,0,1-1.549,1.082L8.586,12.846a1,1,0,0,0-1.172,0L5.386,14.314a1,1,0,0,1-1.549-1.082l.747-2.646a1,1,0,0,0-.335-1.05L2.116,7.817a1,1,0,0,1,.6-1.778L5.3,5.969a1,1,0,0,0,.921-.681Z" transform="translate(16)" fill="#ffc400"/>
  <path id="다각형_8" data-name="다각형 8" d="M7.052,2.82a1,1,0,0,1,1.9,0l.83,2.468a1,1,0,0,0,.921.681l2.585.069a1,1,0,0,1,.6,1.778L11.751,9.536a1,1,0,0,0-.335,1.05l.747,2.646a1,1,0,0,1-1.549,1.082L8.586,12.846a1,1,0,0,0-1.172,0L5.386,14.314a1,1,0,0,1-1.549-1.082l.747-2.646a1,1,0,0,0-.335-1.05L2.116,7.817a1,1,0,0,1,.6-1.778L5.3,5.969a1,1,0,0,0,.921-.681Z" transform="translate(32)" fill="#dbe2f1"/>
  <path id="다각형_13" data-name="다각형 13" d="M7.052,2.82a1,1,0,0,1,1.9,0l.83,2.468a1,1,0,0,0,.921.681l2.585.069a1,1,0,0,1,.6,1.778L11.751,9.536a1,1,0,0,0-.335,1.05l.747,2.646a1,1,0,0,1-1.549,1.082L8.586,12.846a1,1,0,0,0-1.172,0L5.386,14.314a1,1,0,0,1-1.549-1.082l.747-2.646a1,1,0,0,0-.335-1.05L2.116,7.817a1,1,0,0,1,.6-1.778L5.3,5.969a1,1,0,0,0,.921-.681Z" transform="translate(32)" fill="#dbe2f1"/>
  <path id="다각형_7" data-name="다각형 7" d="M7.052,2.82a1,1,0,0,1,1.9,0l.83,2.468a1,1,0,0,0,.921.681l2.585.069a1,1,0,0,1,.6,1.778L11.751,9.536a1,1,0,0,0-.335,1.05l.747,2.646a1,1,0,0,1-1.549,1.082L8.586,12.846a1,1,0,0,0-1.172,0L5.386,14.314a1,1,0,0,1-1.549-1.082l.747-2.646a1,1,0,0,0-.335-1.05L2.116,7.817a1,1,0,0,1,.6-1.778L5.3,5.969a1,1,0,0,0,.921-.681Z" transform="translate(48)" fill="#dbe2f1"/>
  <path id="다각형_12" data-name="다각형 12" d="M7.052,2.82a1,1,0,0,1,1.9,0l.83,2.468a1,1,0,0,0,.921.681l2.585.069a1,1,0,0,1,.6,1.778L11.751,9.536a1,1,0,0,0-.335,1.05l.747,2.646a1,1,0,0,1-1.549,1.082L8.586,12.846a1,1,0,0,0-1.172,0L5.386,14.314a1,1,0,0,1-1.549-1.082l.747-2.646a1,1,0,0,0-.335-1.05L2.116,7.817a1,1,0,0,1,.6-1.778L5.3,5.969a1,1,0,0,0,.921-.681Z" transform="translate(48)" fill="#dbe2f1"/>
  <path id="다각형_6" data-name="다각형 6" d="M7.052,2.82a1,1,0,0,1,1.9,0l.83,2.468a1,1,0,0,0,.921.681l2.585.069a1,1,0,0,1,.6,1.778L11.751,9.536a1,1,0,0,0-.335,1.05l.747,2.646a1,1,0,0,1-1.549,1.082L8.586,12.846a1,1,0,0,0-1.172,0L5.386,14.314a1,1,0,0,1-1.549-1.082l.747-2.646a1,1,0,0,0-.335-1.05L2.116,7.817a1,1,0,0,1,.6-1.778L5.3,5.969a1,1,0,0,0,.921-.681Z" transform="translate(64)" fill="#dbe2f1"/>
  <path id="다각형_11" data-name="다각형 11" d="M7.052,2.82a1,1,0,0,1,1.9,0l.83,2.468a1,1,0,0,0,.921.681l2.585.069a1,1,0,0,1,.6,1.778L11.751,9.536a1,1,0,0,0-.335,1.05l.747,2.646a1,1,0,0,1-1.549,1.082L8.586,12.846a1,1,0,0,0-1.172,0L5.386,14.314a1,1,0,0,1-1.549-1.082l.747-2.646a1,1,0,0,0-.335-1.05L2.116,7.817a1,1,0,0,1,.6-1.778L5.3,5.969a1,1,0,0,0,.921-.681Z" transform="translate(64)" fill="#dbe2f1"/>
</svg>
